<svg xmlns="http://www.w3.org/2000/svg" xmlns:xlink="http://www.w3.org/1999/xlink" width="1080" zoomAndPan="magnify" viewBox="0 0 810 809.999993" height="1080" preserveAspectRatio="xMidYMid meet" version="1.0"><path fill="#ffffff" d="M 399.34375 752.03125 C 355.230469 752.03125 113.988281 613.414062 92.0625 575.449219 C 70.136719 537.628906 70.109375 260.398438 92.035156 222.3125 C 113.8125 184.347656 355.082031 45.703125 399.34375 45.703125 C 443.226562 45.703125 684.464844 184.261719 706.625 222.226562 C 728.757812 260.101562 728.789062 537.425781 706.65625 575.507812 C 684.582031 613.441406 443.34375 752.03125 399.34375 752.03125 Z M 399.34375 75.132812 C 365.792969 75.132812 134.03125 208.21875 117.550781 236.96875 C 100.980469 265.8125 100.949219 532.066406 117.519531 560.703125 C 134.117188 589.457031 365.910156 722.570312 399.34375 722.570312 C 432.6875 722.570312 664.511719 589.425781 681.199219 560.675781 C 697.945312 531.863281 697.972656 265.722656 681.226562 237.058594 C 664.421875 208.304688 432.601562 75.132812 399.34375 75.132812 Z M 399.34375 75.132812 " fill-opacity="1" fill-rule="nonzero"/><path fill="#ffffff" d="M 482.957031 631.808594 C 466.738281 631.660156 420.179688 580.214844 416.503906 571.355469 C 414.207031 565.824219 415.382812 557.496094 419.621094 553.285156 C 423.332031 549.578125 427.570312 548.019531 439.78125 547.164062 C 439.929688 514.734375 440.488281 472.53125 440.929688 448.808594 L 358.320312 448.808594 C 358.261719 466.878906 358.40625 497.574219 360.230469 533.890625 C 360.644531 540.984375 358.761719 546.78125 354.667969 551.078125 C 350.609375 555.347656 344.898438 557.523438 337.6875 557.523438 C 337.628906 557.523438 337.570312 557.523438 337.480469 557.523438 L 295.191406 557.40625 C 288.097656 557.40625 282.417969 555.257812 278.355469 551.050781 C 274.207031 546.78125 272.234375 540.984375 272.472656 533.804688 L 272.824219 522.03125 C 274.175781 475.886719 276.179688 406.578125 272.472656 250.480469 C 259.875 249.507812 255.960938 247.828125 252.515625 244.355469 C 248.308594 240.179688 247.101562 232.027344 249.367188 226.550781 C 253.28125 217.015625 301.078125 165.867188 316.585938 165.867188 C 331.921875 165.867188 379.566406 216.988281 383.480469 226.492188 C 385.746094 232.027344 384.542969 240.207031 380.332031 244.417969 C 376.917969 247.800781 373.0625 249.476562 360.527344 250.480469 C 358.789062 276.996094 358.4375 315.785156 358.140625 347.65625 C 358.054688 356.164062 357.964844 364.226562 357.878906 371.527344 L 440.164062 371.527344 C 440.195312 352.953125 439.988281 318.757812 438.429688 271.316406 C 438.222656 264.546875 440.105469 259.042969 443.992188 254.980469 C 446.582031 252.273438 451.230469 249.035156 458.792969 248.917969 C 474.363281 248.800781 489.929688 248.773438 505.410156 248.832031 C 513.179688 248.859375 517.949219 252.097656 520.597656 254.804688 C 524.542969 258.835938 526.453125 264.371094 526.335938 271.226562 C 522.511719 468.96875 523.921875 507.875 524.835938 533.628906 C 525.011719 538.277344 525.160156 542.542969 525.277344 547.195312 C 539.226562 548.253906 542.289062 549.902344 545.640625 553.167969 C 549.9375 557.378906 551.175781 565.707031 548.820312 571.269531 C 545.171875 580.070312 499.113281 631.453125 483.074219 631.808594 C 483.101562 631.808594 483.015625 631.808594 482.957031 631.808594 Z M 457.351562 575.652344 C 465.828125 584.304688 476.1875 594.019531 482.867188 599.550781 C 489.488281 594.019531 499.730469 584.304688 508.089844 575.652344 C 501.203125 574.417969 495.992188 568.382812 495.992188 561.175781 C 495.992188 550.253906 495.730469 543.164062 495.433594 534.6875 C 494.492188 508.964844 493.109375 470.234375 496.757812 278.261719 C 487.195312 278.261719 477.660156 278.261719 468.09375 278.320312 C 469.800781 334.503906 469.59375 370.878906 469.507812 383.179688 L 469.507812 386.242188 C 469.507812 394.363281 462.914062 400.957031 454.792969 400.957031 L 342.867188 400.957031 C 338.894531 400.957031 335.097656 399.367188 332.363281 396.542969 C 329.566406 393.6875 328.066406 389.859375 328.152344 385.917969 C 328.386719 375.675781 328.535156 362.226562 328.683594 347.394531 C 329.035156 310.839844 329.476562 265.339844 331.890625 239.472656 L 331.832031 236.5 C 331.832031 229.761719 336.394531 224.019531 342.632812 222.3125 C 333.980469 213.515625 323.355469 203.625 316.558594 198.0625 C 309.789062 203.597656 299.132812 213.425781 290.421875 222.195312 C 296.925781 223.757812 301.695312 229.582031 301.695312 236.5 L 301.695312 240.882812 C 305.726562 403.929688 303.609375 475.53125 302.285156 522.914062 L 302.105469 528.007812 L 330.507812 528.066406 C 328.652344 486.65625 328.828125 453.695312 328.917969 439.15625 L 328.949219 434.125 C 328.949219 426 335.539062 419.410156 343.664062 419.410156 L 455.113281 419.410156 C 463.238281 419.410156 469.832031 426 469.832031 434.125 C 470.300781 438.421875 470.476562 440.273438 470.449219 442.480469 C 469.949219 466.878906 469.152344 525.152344 469.152344 561.261719 C 469.183594 568.355469 464.121094 574.328125 457.351562 575.652344 Z M 321.941406 194.121094 Z M 321.941406 194.121094 " fill-opacity="1" fill-rule="nonzero"/></svg>