<svg xmlns="http://www.w3.org/2000/svg" xmlns:xlink="http://www.w3.org/1999/xlink" width="1080" zoomAndPan="magnify" viewBox="0 0 810 809.999993" height="1080" preserveAspectRatio="xMidYMid meet" version="1.0"><defs><clipPath id="3a1c28ad17"><path d="M 11.554688 19.265625 L 802.289062 19.265625 L 802.289062 810 L 11.554688 810 Z M 11.554688 19.265625 " clip-rule="nonzero"/></clipPath><clipPath id="59c79e08d2"><path d="M 406.921875 19.265625 C 188.566406 19.265625 11.554688 196.277344 11.554688 414.632812 C 11.554688 632.988281 188.566406 810 406.921875 810 C 625.277344 810 802.289062 632.988281 802.289062 414.632812 C 802.289062 196.277344 625.277344 19.265625 406.921875 19.265625 Z M 406.921875 19.265625 " clip-rule="nonzero"/></clipPath></defs><g clip-path="url(#3a1c28ad17)"><g clip-path="url(#59c79e08d2)"><path fill="#ffffff" d="M 11.554688 19.265625 L 802.289062 19.265625 L 802.289062 810 L 11.554688 810 Z M 11.554688 19.265625 " fill-opacity="1" fill-rule="nonzero"/></g></g><path fill="#1a0672" d="M 361.261719 26.128906 C 182.808594 45.910156 37.394531 189.902344 15.859375 368.078125 C 15.164062 373.671875 14.585938 379.277344 14.132812 384.894531 C 13.675781 390.511719 13.339844 396.136719 13.125 401.769531 C 12.910156 407.402344 12.816406 413.039062 12.84375 418.675781 C 12.871094 424.308594 13.015625 429.945312 13.285156 435.574219 C 13.554688 441.203125 13.941406 446.828125 14.449219 452.441406 C 14.960938 458.054688 15.589844 463.652344 16.335938 469.238281 C 17.085938 474.828125 17.953125 480.394531 18.941406 485.945312 C 19.929688 491.492188 21.035156 497.019531 22.261719 502.519531 C 23.484375 508.023438 24.828125 513.496094 26.285156 518.941406 C 27.746094 524.386719 29.320312 529.796875 31.011719 535.171875 C 32.703125 540.550781 34.507812 545.890625 36.425781 551.1875 C 38.347656 556.488281 40.378906 561.742188 42.523438 566.957031 C 44.667969 572.167969 46.921875 577.332031 49.289062 582.449219 C 51.65625 587.566406 54.132812 592.628906 56.714844 597.636719 C 59.296875 602.648438 61.988281 607.601562 64.78125 612.496094 C 67.578125 617.390625 70.476562 622.222656 73.480469 626.992188 C 76.480469 631.761719 79.585938 636.464844 82.789062 641.101562 C 85.992188 645.742188 89.296875 650.308594 92.695312 654.804688 C 96.09375 659.296875 99.589844 663.71875 103.179688 668.066406 C 106.769531 672.410156 110.449219 676.679688 114.222656 680.867188 C 117.992188 685.054688 121.855469 689.160156 125.800781 693.183594 C 129.75 697.207031 133.78125 701.144531 137.898438 704.992188 C 142.015625 708.84375 146.214844 712.605469 150.492188 716.273438 C 154.769531 719.945312 159.125 723.519531 163.554688 727.003906 C 167.988281 730.488281 172.492188 733.875 177.066406 737.164062 C 181.644531 740.457031 186.289062 743.648438 191 746.738281 C 195.714844 749.832031 200.492188 752.820312 205.332031 755.707031 C 210.175781 758.59375 215.074219 761.375 220.035156 764.050781 C 224.996094 766.726562 230.011719 769.296875 235.082031 771.757812 C 240.152344 774.21875 245.273438 776.574219 250.445312 778.816406 C 255.617188 781.058594 260.832031 783.1875 266.097656 785.207031 C 271.359375 787.226562 276.664062 789.128906 282.007812 790.921875 C 301.703125 794.070312 308 781.867188 308 771.253906 L 308 704.730469 C 198.992188 728.410156 175.789062 652.023438 175.789062 652.023438 C 157.738281 606.367188 132.109375 594.164062 132.109375 594.164062 C 96.285156 569.761719 134.894531 570.570312 134.894531 570.570312 C 174.226562 573.355469 195.09375 611.101562 195.09375 611.101562 C 229.328125 670.914062 287.160156 653.195312 309.585938 643.75 C 313.125 618.179688 323.515625 600.851562 334.378906 591.019531 C 246.878906 581.183594 155.3125 547.339844 155.3125 397.4375 C 155.3125 353.757812 170.273438 318.742188 195.84375 290.800781 C 191.917969 280.96875 178.128906 240.046875 199.773438 186.921875 C 199.773438 186.921875 232.839844 176.28125 308 227.0625 C 324.035156 222.746094 340.285156 219.5 356.75 217.320312 C 373.214844 215.144531 389.753906 214.054688 406.363281 214.054688 C 422.96875 214.054688 439.507812 215.144531 455.972656 217.320312 C 472.4375 219.5 488.6875 222.746094 504.726562 227.0625 C 579.941406 176.28125 612.949219 186.921875 612.949219 186.921875 C 634.566406 240.046875 620.804688 280.96875 616.878906 290.800781 C 642.453125 318.65625 657.410156 353.757812 657.410156 397.4375 C 657.410156 547.726562 565.316406 580.792969 477.59375 590.628906 C 491.746094 602.828125 504.726562 626.84375 504.726562 663.417969 L 504.726562 771.253906 C 504.726562 781.867188 511.019531 794.460938 531.105469 790.921875 C 536.808594 789.011719 542.46875 786.96875 548.078125 784.796875 C 553.6875 782.628906 559.246094 780.328125 564.753906 777.90625 C 570.257812 775.480469 575.703125 772.929688 581.09375 770.253906 C 586.480469 767.578125 591.804688 764.78125 597.066406 761.863281 C 602.324219 758.945312 607.515625 755.90625 612.636719 752.75 C 617.757812 749.59375 622.804688 746.320312 627.777344 742.933594 C 632.746094 739.546875 637.636719 736.046875 642.449219 732.433594 C 647.261719 728.820312 651.984375 725.101562 656.625 721.273438 C 661.265625 717.445312 665.816406 713.511719 670.277344 709.476562 C 674.738281 705.4375 679.101562 701.300781 683.371094 697.0625 C 687.644531 692.828125 691.816406 688.496094 695.886719 684.066406 C 699.957031 679.636719 703.925781 675.117188 707.792969 670.507812 C 711.65625 665.898438 715.414062 661.203125 719.0625 656.421875 C 722.714844 651.636719 726.253906 646.777344 729.679688 641.832031 C 733.105469 636.886719 736.417969 631.867188 739.617188 626.769531 C 742.8125 621.675781 745.890625 616.507812 748.851562 611.269531 C 751.8125 606.035156 754.648438 600.730469 757.367188 595.363281 C 760.085938 589.996094 762.675781 584.570312 765.144531 579.085938 C 767.613281 573.597656 769.957031 568.058594 772.171875 562.464844 C 774.386719 556.871094 776.472656 551.230469 778.429688 545.542969 C 780.382812 539.855469 782.210938 534.125 783.902344 528.351562 C 785.597656 522.578125 787.15625 516.769531 788.585938 510.925781 C 790.011719 505.082031 791.304688 499.207031 792.464844 493.304688 C 793.621094 487.402344 794.644531 481.476562 795.53125 475.523438 C 796.417969 469.574219 797.167969 463.609375 797.78125 457.625 C 798.394531 451.640625 798.871094 445.644531 799.210938 439.636719 C 799.550781 433.632812 799.75 427.621094 799.8125 421.605469 C 799.878906 415.589844 799.804688 409.574219 799.589844 403.5625 C 799.378906 397.550781 799.027344 391.546875 798.542969 385.550781 C 798.054688 379.554688 797.429688 373.574219 796.667969 367.605469 C 795.90625 361.636719 795.007812 355.691406 793.976562 349.765625 C 792.941406 343.839844 791.773438 337.9375 790.46875 332.066406 C 789.164062 326.195312 787.726562 320.355469 786.152344 314.546875 C 784.582031 308.742188 782.878906 302.972656 781.042969 297.242188 C 779.207031 291.515625 777.238281 285.832031 775.144531 280.191406 C 773.046875 274.554688 770.820312 268.964844 768.46875 263.429688 C 766.117188 257.894531 763.640625 252.414062 761.035156 246.988281 C 758.433594 241.566406 755.707031 236.207031 752.855469 230.90625 C 750.007812 225.609375 747.039062 220.378906 743.949219 215.214844 C 740.859375 210.054688 737.652344 204.964844 734.332031 199.949219 C 731.011719 194.933594 727.574219 190 724.027344 185.140625 C 720.476562 180.28125 716.820312 175.507812 713.054688 170.816406 C 709.285156 166.128906 705.414062 161.527344 701.4375 157.011719 C 697.457031 152.5 693.378906 148.082031 689.199219 143.753906 C 685.019531 139.429688 680.742188 135.199219 676.367188 131.070312 C 671.992188 126.941406 667.527344 122.914062 662.96875 118.988281 C 658.410156 115.0625 653.761719 111.242188 649.027344 107.53125 C 644.296875 103.816406 639.480469 100.214844 634.582031 96.722656 C 629.679688 93.234375 624.707031 89.855469 619.652344 86.589844 C 614.597656 83.328125 609.472656 80.179688 604.273438 77.152344 C 599.078125 74.121094 593.8125 71.214844 588.480469 68.425781 C 583.152344 65.640625 577.757812 62.976562 572.304688 60.433594 C 566.851562 57.894531 561.34375 55.480469 555.78125 53.191406 C 550.21875 50.902344 544.605469 48.742188 538.941406 46.710938 C 533.28125 44.679688 527.574219 42.78125 521.824219 41.011719 C 516.074219 39.242188 510.285156 37.605469 504.460938 36.101562 C 498.636719 34.59375 492.78125 33.226562 486.894531 31.988281 C 481.007812 30.753906 475.09375 29.652344 469.15625 28.6875 C 463.21875 27.722656 457.261719 26.894531 451.285156 26.199219 C 445.308594 25.507812 439.320312 24.953125 433.320312 24.535156 C 427.320312 24.117188 421.3125 23.839844 415.296875 23.695312 C 409.28125 23.554688 403.269531 23.546875 397.253906 23.679688 C 391.238281 23.8125 385.230469 24.085938 379.230469 24.492188 C 373.226562 24.902344 367.238281 25.445312 361.261719 26.128906 Z M 361.261719 26.128906 " fill-opacity="1" fill-rule="nonzero"/></svg>